<?xml version="1.0" encoding="iso-8859-1"?>
<!-- Uploaded to: SVG Repo, www.svgrepo.com, Generator: SVG Repo Mixer Tools -->
<!DOCTYPE svg PUBLIC "-//W3C//DTD SVG 1.1//EN" "http://www.w3.org/Graphics/SVG/1.1/DTD/svg11.dtd">
<svg fill="#000000" height="800px" width="800px" version="1.1" id="Capa_1" xmlns="http://www.w3.org/2000/svg" xmlns:xlink="http://www.w3.org/1999/xlink" 
	 viewBox="0 0 511 511" xml:space="preserve">
<g>
	<path d="M95.5,416c-1.97,0-3.91,0.8-5.3,2.2c-1.4,1.39-2.2,3.33-2.2,5.3c0,1.97,0.8,3.91,2.2,5.3c1.39,1.4,3.33,2.2,5.3,2.2
		c1.97,0,3.91-0.8,5.3-2.2c1.4-1.39,2.2-3.33,2.2-5.3c0-1.97-0.8-3.91-2.2-5.3C99.41,416.8,97.47,416,95.5,416z"/>
	<path d="M290.2,418.2c-1.4,1.39-2.2,3.33-2.2,5.3c0,1.97,0.8,3.91,2.2,5.3c1.39,1.4,3.33,2.2,5.3,2.2c1.97,0,3.91-0.8,5.3-2.2
		c1.4-1.39,2.2-3.33,2.2-5.3c0-1.97-0.8-3.91-2.2-5.3c-1.39-1.4-3.33-2.2-5.3-2.2C293.53,416,291.59,416.8,290.2,418.2z"/>
	<path d="M271.5,416h-152c-4.142,0-7.5,3.358-7.5,7.5s3.358,7.5,7.5,7.5h152c4.142,0,7.5-3.358,7.5-7.5S275.642,416,271.5,416z"/>
	<path d="M495,249.234V101.766c9.29-3.138,16-11.93,16-22.266c0-12.958-10.542-23.5-23.5-23.5c-11.794,0-21.584,8.735-23.248,20.074
		l-6.466,6.25L66.937,224.452c-0.36,0.131-0.698,0.294-1.025,0.472C61.604,219.493,54.954,216,47.5,216
		C34.542,216,24,226.542,24,239.5c0,10.336,6.71,19.128,16,22.266V336H15.5C6.953,336,0,342.953,0,351.5v40
		c0,8.547,6.953,15.5,15.5,15.5h53.181C65.716,411.802,64,417.454,64,423.5c0,17.369,14.131,31.5,31.5,31.5h200
		c17.369,0,31.5-14.131,31.5-31.5S312.869,392,295.5,392H271v-45.614l209-231.393v134.241c-9.29,3.138-16,11.93-16,22.266v8
		c0,10.336,6.71,19.128,16,22.266v9.734c0,4.142,3.358,7.5,7.5,7.5c4.687,0,8.5,3.813,8.5,8.5s-3.813,8.5-8.5,8.5
		s-8.5-3.813-8.5-8.5c0-4.142-3.358-7.5-7.5-7.5s-7.5,3.358-7.5,7.5c0,12.958,10.542,23.5,23.5,23.5s23.5-10.542,23.5-23.5
		c0-10.337-6.708-19.136-16-22.273v-3.461c9.29-3.138,16-11.93,16-22.266v-8C511,261.164,504.29,252.372,495,249.234z
		 M200.074,337.627c-2.658-1.046-5.549-1.627-8.574-1.627H183v-16.5c0-0.276,0.224-0.5,0.5-0.5H200v16.362
		C200,336.121,200.03,336.875,200.074,337.627z M215,319h16.5c13.509,0,24.5,10.991,24.5,24.5v22.057l-23.23-6.637
		c-10.462-2.989-17.77-12.677-17.77-23.558V319z M246.842,307.102L465.917,95.329l2.146-0.78c0.36-0.131,0.698-0.294,1.025-0.472
		c1.481,1.867,3.236,3.507,5.209,4.852L267.683,327.68C263.627,318.441,256.143,311.037,246.842,307.102z M487.5,71
		c4.687,0,8.5,3.813,8.5,8.5s-3.813,8.5-8.5,8.5s-8.5-3.813-8.5-8.5S482.813,71,487.5,71z M72.063,238.548L431.319,107.91
		L228.467,304H183.5c-8.547,0-15.5,6.953-15.5,15.5V336h-13.394l-85.803-85.803c-0.085-0.086-0.178-0.16-0.266-0.241
		C70.11,246.805,71,243.255,71,239.5c0-0.219-0.011-0.436-0.017-0.654C71.345,238.773,71.706,238.678,72.063,238.548z M47.5,231
		c4.687,0,8.5,3.813,8.5,8.5s-3.813,8.5-8.5,8.5s-8.5-3.813-8.5-8.5S42.813,231,47.5,231z M55,261.766
		c1.018-0.344,2.005-0.754,2.956-1.229c0.081,0.089,0.155,0.181,0.241,0.266L133.394,336H55V261.766z M15,391.5V375h16.5
		c4.142,0,7.5-3.358,7.5-7.5s-3.358-7.5-7.5-7.5H15v-8.5c0-0.276,0.224-0.5,0.5-0.5h176c4.687,0,8.5,3.813,8.5,8.5v0.5H63.5
		c-4.142,0-7.5,3.358-7.5,7.5s3.358,7.5,7.5,7.5H200v17H95.5h-80C15.224,392,15,391.776,15,391.5z M312,423.5
		c0,9.098-7.402,16.5-16.5,16.5h-200c-9.098,0-16.5-7.402-16.5-16.5S86.402,407,95.5,407h112h88C304.598,407,312,414.402,312,423.5z
		 M215,392v-25.698c3.97,3.16,8.577,5.591,13.648,7.041L256,381.157V392H215z M496,279.5c0,4.687-3.813,8.5-8.5,8.5
		s-8.5-3.813-8.5-8.5v-8c0-4.687,3.813-8.5,8.5-8.5s8.5,3.813,8.5,8.5V279.5z"/>
</g>
</svg>