<?xml version="1.0" encoding="utf-8"?>
<!-- Uploaded to: SVG Repo, www.svgrepo.com, Generator: SVG Repo Mixer Tools -->
<svg width="800px" height="800px" viewBox="-38.81 0 429.965 429.965" xmlns="http://www.w3.org/2000/svg"><defs><style>.a{fill:#ffffff;}.b{fill:#645d5c;}.c{fill:#211715;}.d{fill:#7a7473;}.e{fill:#3d8dcc;}.f{fill:#d9d9d9;}.g{fill:#85807f;}.h{fill:none;}.i{fill:#febe69;}</style></defs><path class="a" d="M301.934,410.107a92.71,92.71,0,0,1-12.813-10.5l-1.262-1.336-3.139-.707a17.869,17.869,0,0,1-1.385,2.043,92.6,92.6,0,0,1-13.106,10.7,10.524,10.524,0,0,1-9.354,1.244c-2.88-1.049-5.441-3.166-5.075-6.689,0,0,.061-1.2.142-2.339a56.63,56.63,0,0,0,6.684-8.062,13.867,13.867,0,0,0,2.647-7.605q-.047-2.052-.11-4.138a48.829,48.829,0,0,0,17.849-.872h4.68a48.878,48.878,0,0,0,19.611.6q-.071,2.223-.12,4.409a13.877,13.877,0,0,0,2.648,7.605,56.43,56.43,0,0,0,6.688,8.065c.078,1.144.138,2.336.138,2.336.365,3.523-2.2,5.64-5.076,6.689a10.525,10.525,0,0,1-9.354-1.244Z"/><path class="b" d="M297.622,417.926c-2.744-1.912-5.169-3.592-5.947-4.078-4.989-3.116-4.432-7.357-4.322-10.263a53.215,53.215,0,0,1,.506-5.318l1.262,1.336a92.6,92.6,0,0,0,13.106,10.7,10.525,10.525,0,0,0,9.354,1.244c2.88-1.049,5.441-3.166,5.076-6.689l-.255-2.452.472.484c3.235,3.317,6.8,6.581,10.032,9.8,2.1,2.092,3.75,4.872,3.676,7.921a6.782,6.782,0,0,1-3.219,5.079,13.024,13.024,0,0,1-5.845,2.058,22.09,22.09,0,0,1-13.756-2.823C307.007,424.491,301.923,420.924,297.622,417.926Z"/><path class="b" d="M274.834,417.926c2.744-1.912,5.17-3.592,5.947-4.078,4.989-3.116,4.432-7.357,4.322-10.263a58.859,58.859,0,0,0-.383-6.025,9.951,9.951,0,0,0-1.385,2.043,92.6,92.6,0,0,1-13.106,10.7,10.524,10.524,0,0,1-9.354,1.244c-2.88-1.049-5.441-3.166-5.075-6.689l.254-2.452-.472.484c-3.235,3.317-6.8,6.581-10.032,9.8-2.1,2.092-3.75,4.872-3.676,7.921a6.787,6.787,0,0,0,3.219,5.079,13.023,13.023,0,0,0,5.846,2.058,22.087,22.087,0,0,0,13.755-2.823C265.449,424.491,270.533,420.924,274.834,417.926Z"/><path class="c" d="M298.632,416.2c-1.8-1.255-3.593-2.528-5.425-3.739a8.143,8.143,0,0,1-3.419-3.538,9.933,9.933,0,0,1-.486-4.191,55.558,55.558,0,0,1,.486-5.933l-3.343.882a76.221,76.221,0,0,0,6.955,6.478c3.119,2.574,6.5,5.627,10.3,7.119a12.277,12.277,0,0,0,11.487-1.359,8.263,8.263,0,0,0,3.169-4.147c.566-1.763.237-3.574.051-5.367l-3.414,1.414c3,3.071,6.126,6,9.194,9,2.146,2.1,5.7,5.681,4.059,9.035-1.7,3.479-6.543,4.155-9.964,4.063a19.469,19.469,0,0,1-10.017-3.039c-3.262-2.141-6.427-4.442-9.628-6.673-2.117-1.476-4.118,1.99-2.019,3.453,3.2,2.232,6.366,4.533,9.629,6.674a23.426,23.426,0,0,0,12.251,3.591c4.659.074,9.73-1.2,12.611-5.128,2.827-3.855,1.119-8.823-1.613-12.209a65.935,65.935,0,0,0-5.847-5.843c-1.968-1.89-3.922-3.793-5.827-5.747-1.124-1.153-3.6-.362-3.415,1.414a12.05,12.05,0,0,1,.184,3.994,4.405,4.405,0,0,1-2.232,2.6,8.66,8.66,0,0,1-9.276-.525,78.465,78.465,0,0,1-13.8-11.616c-.947-1-3.122-.631-3.343.882a65.622,65.622,0,0,0-.629,7,13.473,13.473,0,0,0,.736,5.526,11.5,11.5,0,0,0,4.689,5.356c2,1.3,3.934,2.68,5.886,4.039C298.73,421.128,300.731,417.662,298.632,416.2Z"/><path class="c" d="M308.489,322.91c-.759,12.668-1.585,25.332-2.258,38-.314,5.916-.594,11.834-.805,17.754-.1,2.791-.311,5.622-.243,8.415a15.939,15.939,0,0,0,1.66,6.326,34.194,34.194,0,0,0,5.335,7.351c2.3,2.641,4.8,5.1,7.312,7.529,1.851,1.791,4.683-1.034,2.828-2.828-4.091-3.955-8.266-8.01-11.346-12.834-2.542-3.982-1.725-8.819-1.57-13.286.412-11.833,1.094-23.656,1.809-35.474q.633-10.479,1.278-20.958c.154-2.571-3.847-2.562-4,0Z"/><path class="c" d="M275.843,419.653c1.972-1.373,3.938-2.759,5.947-4.078a11.325,11.325,0,0,0,4.832-5.861,15.373,15.373,0,0,0,.506-5.569c-.1-2.382-.145-4.751-.48-7.117-.25-1.768-2.87-1.847-3.655-.477a13.394,13.394,0,0,1-1.268,1.891c.488-.588-.026-.014-.112.066-.215.2-.417.417-.628.622-1.058,1.026-2.163,2-3.282,2.962a85.634,85.634,0,0,1-8.166,6.271,8.733,8.733,0,0,1-9.15.79,4.845,4.845,0,0,1-2.425-2.444c-.476-1.292-.044-2.99.092-4.3.184-1.772-2.283-2.574-3.414-1.414-3.423,3.509-7.067,6.792-10.5,10.285-3,3.05-5.521,7.833-3.608,12.1,1.973,4.4,7.022,6.139,11.488,6.481a23.683,23.683,0,0,0,13.722-3.226c3.491-2.1,6.764-4.651,10.105-6.98,2.1-1.461.1-4.93-2.018-3.453-2.978,2.075-5.94,4.174-8.943,6.212a20.054,20.054,0,0,1-8.976,3.384c-3.663.416-8.314.073-10.937-2.861-2.5-2.794-.181-6.62,2-8.83,3.439-3.491,7.081-6.776,10.5-10.286l-3.414-1.414c-.186,1.793-.515,3.6.051,5.367a8.424,8.424,0,0,0,3.431,4.332,12.406,12.406,0,0,0,11.893.9,28.292,28.292,0,0,0,5.384-3.5q2.472-1.854,4.846-3.837c2.509-2.1,5.139-4.212,6.788-7.09l-3.656-.477c.272,1.924.244,3.887.326,5.826a13.492,13.492,0,0,1-.267,4.46,7.258,7.258,0,0,1-3.344,3.914c-1.922,1.259-3.8,2.594-5.681,3.908C271.727,417.661,273.724,421.13,275.843,419.653Z"/><path class="c" d="M259.968,322.91c.73,12.2,1.522,24.387,2.181,36.587.317,5.863.6,11.729.824,17.6q.159,4.224.269,8.449a12.626,12.626,0,0,1-1.007,5.686,29.061,29.061,0,0,1-4.937,6.878c-2.256,2.574-4.7,4.978-7.16,7.356-1.854,1.793.977,4.619,2.829,2.828a88.285,88.285,0,0,0,11.783-13.357c2.956-4.311,2.512-9.308,2.349-14.251-.4-12.037-1.084-24.062-1.809-36.083q-.654-10.845-1.322-21.689c-.153-2.558-4.154-2.575-4,0Z"/><path class="c" d="M283.228,381.218v9.994a2,2,0,0,0,4,0v-9.994a2,2,0,0,0-4,0Z"/><path class="a" d="M251.627,206.627c-4.808,13.808-4.079,28.846-3.247,43.443q3.731,65.455,8.7,130.833a48.786,48.786,0,0,0,28.276.315,48.776,48.776,0,0,0,28.273-.315q4.966-65.373,8.7-130.833c.832-14.6,1.561-29.635-3.247-43.443"/><path class="a" d="M319.078,206.627c4.808,13.808,4.079,28.846,3.247,43.443q-3.73,65.455-8.7,130.833a48.847,48.847,0,0,1-25.935.938"/><path class="c" d="M249.7,206.1c-3.519,10.24-4.136,21.18-3.867,31.925.284,11.323,1.151,22.645,1.832,33.95q2.1,34.836,4.542,69.651,1.381,19.646,2.873,39.282a2.08,2.08,0,0,0,1.468,1.929,51.517,51.517,0,0,0,27,.937c2.506-.585,1.445-4.442-1.063-3.857a47.371,47.371,0,0,1-24.872-.937l1.469,1.928q-2.634-34.676-4.922-69.376c-1.506-22.861-3.134-45.741-4.152-68.63-.534-12.016-.4-24.242,3.551-35.738.839-2.44-3.024-3.488-3.857-1.064Z"/><path class="c" d="M317.149,207.159c3.516,10.23,4.014,21.064,3.7,31.791-.33,11.262-1.173,22.521-1.851,33.766q-2.085,34.588-4.515,69.154-1.373,19.521-2.855,39.033l1.469-1.928a47.371,47.371,0,0,1-24.872.937c-2.5-.584-3.573,3.271-1.063,3.857a51.517,51.517,0,0,0,27-.937,2.076,2.076,0,0,0,1.468-1.929q2.643-34.8,4.938-69.624c1.515-23.008,3.195-46.04,4.166-69.078.51-12.117.256-24.522-3.725-36.106-.831-2.42-4.7-1.38-3.857,1.064Z"/><path class="c" d="M283.037,243.255q0,11.792.032,23.582.031,16.181.075,32.362.045,17.048.092,34.1.04,14.667.079,29.335.022,8.777.039,17.554v1.033c0,2.574,4,2.578,4,0q0-7.821-.031-15.644-.036-14.127-.076-28.256-.046-16.929-.092-33.859-.042-16.482-.079-32.963-.027-12.509-.038-25.016,0-1.113,0-2.225c0-2.574-4-2.578-4,0Z"/><path class="d" d="M321.325,107.351c1.206.623,2.34,1.246,3.35,1.846a25.441,25.441,0,0,1,5.242,4.046,36.163,36.163,0,0,1,6.091,9.787c.961,2.128,9.809,26.633,13.449,39.8a22.1,22.1,0,0,1,0,12.57c-1.02,3.63-4.59,8.09-8.16,10.25-4.81,2.93-10.15,6.02-15.33,8.56a2.14,2.14,0,0,1-.22.1l-.467.227c.387,2.82.686,5.018.686,5.018.72,7.01,1.577,12.466,2,18.146a1.1,1.1,0,0,1-1.01,1.18c-6.21.47-17.74,1.18-23.78.19-4.21-.69-7.1-1.48-9.77-3.73a17.031,17.031,0,0,1-5.64-8.2,88.754,88.754,0,0,1-1.86-8.95.627.627,0,0,0-1.24,0,80.79,80.79,0,0,1-1.75,8.59,15.779,15.779,0,0,1-5.97,8.34c-2.06,1.52-6.21,3.18-10.92,3.91a95.129,95.129,0,0,1-20.45.34,1.218,1.218,0,0,1-1.08-1.3c.55-6.56,1.214-10.636,2.084-18.676l.556-5.013-.145-.072a2.14,2.14,0,0,1-.22-.1c-5.18-2.54-10.52-5.63-15.33-8.56-3.57-2.16-7.14-6.62-8.16-10.25a22.1,22.1,0,0,1,0-12.57c3.64-13.17,12.487-37.675,13.448-39.8a36.137,36.137,0,0,1,6.092-9.787,25.388,25.388,0,0,1,5.242-4.046c5.425-3.226,14.462-7.1,18.914-8.143,2.711,10.706,14.806,47.675,18.731,56.015h1.081c3.925-8.357,16.037-45.453,18.716-56.078C309.057,101.767,315.917,104.56,321.325,107.351Z"/><path class="a" d="M104.36,48.262a4.448,4.448,0,0,1,3.212-1.175,4.121,4.121,0,0,1,3.7,2.057c1.259,2.182,1.2,6.2.361,8.691a13.418,13.418,0,0,1-3.94,6.389,4.774,4.774,0,0,1-4.2.993,32.052,32.052,0,0,1-6.511,11.7A27.339,27.339,0,0,1,75.9,86.647a43.847,43.847,0,0,1-6.541-.873A25.472,25.472,0,0,1,54.69,77.1a32.053,32.053,0,0,1-6.359-11.867A4.791,4.791,0,0,1,44.2,64.224a13.418,13.418,0,0,1-3.94-6.389c-.844-2.488-.9-6.509.361-8.691a4.121,4.121,0,0,1,3.7-2.057,4.447,4.447,0,0,1,3.211,1.175S44.905,22.645,75.945,22.645,104.36,48.262,104.36,48.262Z"/><path class="a" d="M65.817,115.471c-4.69-13.793-9.47-28.856-11.242-35.619,0,0,0-1.4,0-2.888l.119.138a25.472,25.472,0,0,0,14.673,8.672,43.847,43.847,0,0,0,6.541.873,27.339,27.339,0,0,0,21.081-9.729q.377-.435.727-.869c0,2.021,0,3.817,0,3.817C94.473,92.274,81.149,132.62,76.792,141.8H75.576C73.587,137.621,69.733,126.989,65.817,115.471Z"/><path class="a" d="M278.721,138.366c-3.762-10.965-7.906-23.878-10.294-32.058q1.407.006,2.811,0c.387,2.283,1.192,3.9,2.393,4.79,2.493,1.848,7,3.351,12.857,3.351,4.444,0,9.9-.862,14.3-3.734q.668-.436,1.3-.935a3.874,3.874,0,0,0,1.209-2.9h.565c-4.283,14.587-13.7,43-17.077,50.18h-1.081C284.225,153.924,281.583,146.709,278.721,138.366Z"/><path class="a" d="M95.485,224.97c-4.8-.79-8.08-1.69-11.129-4.25a19.351,19.351,0,0,1-6.42-9.35,100.167,100.167,0,0,1-2.13-10.2.714.714,0,0,0-1.41.01,90.744,90.744,0,0,1-1.991,9.78,17.94,17.94,0,0,1-6.8,9.5c-2.34,1.73-7.08,3.63-12.44,4.46a104.686,104.686,0,0,1-17.411.76c.149,3.853.423,10.935.423,10.935,1.9,46.248,3.046,88.537,4.666,132.5q.4,10.833.843,21.827a58.681,58.681,0,0,0,16.16,2.493c5.846-.057,15.115-.569,19.393-1.674,4.283,1.106,13.531,1.621,19.374,1.679a58.854,58.854,0,0,0,16.156-2.5c2.107-51.876,3.282-100.237,5.5-153.919l.45-12.007C111.41,225.5,101.256,225.909,95.485,224.97Z"/><path class="b" d="M99.506,420.957c-2.915-2.391-5.716-4.785-9.008-7.218-1.633-1.208-3.665-2.044-5.216-3.355a9.148,9.148,0,0,1-2.1-2.794c-1.831-3.488-1.669-9.994-.972-13.871,0,0,.072-.4.195-1.092,4.525.519,10.178.777,14.21.817a53.51,53.51,0,0,0,9.745-.953l1.794,2.818c1.3,1.46,3.729,4.377,5.136,5.735,4.2,4.048,5.707,5.969,8.76,9.354,2.346,2.6,4.4,7.82,3.811,11.482-.458,2.826-3.174,4.373-5.823,5.461a21.276,21.276,0,0,1-7.721.395,20.909,20.909,0,0,1-9.093-3.813C101.936,422.933,100.711,421.945,99.506,420.957Z"/><path class="b" d="M55.047,420.748c2.9-2.267,5.635-4.568,9.84-6.242,2.152-.857,4.405-1.178,6.054-2.8a8.684,8.684,0,0,0,2.046-4.091,33.463,33.463,0,0,0,.132-13.561s-.117-.57-.3-1.512a146.162,146.162,0,0,1-14.97.9,54.759,54.759,0,0,1-10.7-1.131l-3.1,4.929L30.368,412.511c-6.726,6.9-4.421,13.873,3.382,15.132a21.387,21.387,0,0,0,12.1-1.816,29.748,29.748,0,0,0,6.775-3.255C53.465,421.975,54.262,421.363,55.047,420.748Z"/><path class="c" d="M104.632,393.5c2.636,4.9,7.144,8.66,10.9,12.645,3.814,4.043,9.068,8.944,8.4,15.093-.26,2.4-3.212,4.007-5.369,4.419a17.92,17.92,0,0,1-8.434-.5c-3.644-1.08-6.413-3.321-9.306-5.695-3.17-2.6-6.272-5.359-9.651-7.691-1.589-1.1-3.536-1.819-4.907-3.2a8.528,8.528,0,0,1-2.093-4.185,26.5,26.5,0,0,1-.039-10.134,2.057,2.057,0,0,0-1.4-2.46,2.017,2.017,0,0,0-2.46,1.4c-1.172,6.759-1.238,15.559,5.146,19.773,1.749,1.154,3.566,2.11,5.239,3.387,1.778,1.358,3.5,2.783,5.227,4.208,3.245,2.683,6.445,5.735,10.351,7.422,6.016,2.6,14.4,3.244,19.451-1.758,2.733-2.707,2.6-6.654,1.583-10.11-1.053-3.589-3.058-6.259-5.494-9.01-2.494-2.816-5.15-5.435-7.749-8.149a36.229,36.229,0,0,1-5.948-7.469c-1.22-2.268-4.675-.25-3.454,2.018Z"/><path class="c" d="M71.19,394.581a31.708,31.708,0,0,1,.043,11.541,8.18,8.18,0,0,1-1.483,3.928c-1.029,1.251-2.792,1.619-4.25,2.113a31.033,31.033,0,0,0-8.58,4.62c-2.608,1.945-5.029,4.184-7.978,5.617-3.265,1.587-6.971,3.116-10.617,3.414-2.705.221-6,.064-8.207-1.739-5.041-4.12,1.823-10.2,4.538-13.239,2.921-3.267,5.787-6.582,8.711-9.846a40.356,40.356,0,0,0,5.311-7.672c1.229-2.263-2.224-4.285-3.454-2.019a38.63,38.63,0,0,1-5.155,7.387c-2.872,3.206-5.675,6.473-8.555,9.672-2.6,2.892-5.6,5.544-6.711,9.42A8.871,8.871,0,0,0,26.41,426c2.138,2.562,5.51,3.537,8.715,3.81,4.36.37,8.3-.9,12.294-2.454a30.7,30.7,0,0,0,5.665-2.688c1.472-.954,2.838-2.083,4.216-3.166a31.56,31.56,0,0,1,9.072-5.418c2.007-.69,4.056-1.265,5.686-2.7a9.781,9.781,0,0,0,2.823-5.088,35.871,35.871,0,0,0,.166-14.783c-.495-2.524-4.352-1.456-3.857,1.063Z"/><path class="c" d="M76.7,393.693c5.6,1.405,11.655,1.543,17.4,1.7a59.586,59.586,0,0,0,19.2-2.518,2.061,2.061,0,0,0,1.468-1.929c1.013-24.953,1.839-49.913,2.662-74.873.835-25.356,1.68-50.711,2.711-76.06.228-5.588.43-11.178.64-16.767.1-2.575-3.9-2.571-4,0-.634,16.889-1.324,33.775-1.924,50.666-.886,24.921-1.66,49.846-2.518,74.768q-.728,21.135-1.571,42.266l1.469-1.928A56.039,56.039,0,0,1,94.1,391.4c-5.394-.149-11.075-.24-16.336-1.559-2.5-.627-3.562,3.23-1.063,3.857Z"/><path class="c" d="M76.7,389.839c-5.263,1.316-10.945,1.405-16.341,1.552a56.018,56.018,0,0,1-18.139-2.373l1.468,1.928c-1.007-24.862-1.831-49.73-2.652-74.6-.833-25.253-1.674-50.507-2.695-75.753q-.351-8.673-.678-17.346c-.1-2.566-4.1-2.579-4,0,.656,16.988,1.345,33.976,1.948,50.966.88,24.828,1.653,49.66,2.508,74.489q.729,21.123,1.569,42.243a2.066,2.066,0,0,0,1.469,1.929,59.6,59.6,0,0,0,19.2,2.516c5.747-.157,11.8-.293,17.4-1.695,2.5-.625,1.439-4.483-1.063-3.857Z"/><path class="c" d="M75.231,245.368q.013,8.668.006,17.337,0,16.617,0,33.235,0,19.476,0,38.953,0,17.414,0,34.825,0,10.4,0,20.79v1.1c0,2.574,4,2.578,4,0q0-9.165,0-18.33l0-33.745q0-19.493,0-38.983,0-17.189,0-34.375,0-9.928,0-19.857,0-.472,0-.946c0-2.574-4-2.578-4,0Z"/><path class="d" d="M29.044,219.4c.778-8.138,1.955-18.412,2.747-27.806l.441-6.426c-1.053-.5-2.129-1.021-3.218-1.55a2.245,2.245,0,0,1-.247-.112c-5.8-2.843-11.777-6.3-17.162-9.583-4-2.418-8.021-8.334-8.847-12.473a31.479,31.479,0,0,1-.042-13.167c.56-2.488,1.306-4.766,1.981-7.225,1.977-7.192,4.026-13.449,6.644-20.358C14,113.67,17.083,105.673,21.36,99.422,24.9,94.254,29.4,91.8,34.7,88.613a95.6,95.6,0,0,1,17.75-7.888l2.152-.762c3.3,12.529,16.613,52.68,20.972,61.836h1.216C81.114,132.7,94.257,92.928,97.63,80.174c6.786,2.375,13.208,4.772,19.309,8.439,5.3,3.187,9.806,5.641,13.342,10.809,4.277,6.251,7.355,14.248,10.019,21.275,2.618,6.909,4.666,13.166,6.643,20.358.676,2.459,1.422,4.737,1.982,7.225a31.479,31.479,0,0,1-.042,13.167c-.826,4.139-4.851,10.055-8.848,12.473-5.384,3.28-11.363,6.74-17.162,9.583a2.232,2.232,0,0,1-.246.112q-1.3.63-2.565,1.236c.375,3.671.7,6.875.7,6.875.16,2.02-.334-3.456.7,7.1.98,9.42,1.72,17.24,2.27,24.57a1.261,1.261,0,0,1-1.15,1.35c-7.08.54-20.21,1.34-27.09.22-4.8-.79-8.08-1.69-11.13-4.25a19.358,19.358,0,0,1-6.42-9.35,100.45,100.45,0,0,1-2.13-10.2.714.714,0,0,0-1.41.01,91.06,91.06,0,0,1-1.99,9.78,17.936,17.936,0,0,1-6.8,9.5c-2.34,1.73-7.08,3.63-12.44,4.46a108.623,108.623,0,0,1-23.3.38,1.354,1.354,0,0,1-1.22-1.47C28.76,222.445,28.9,220.96,29.044,219.4Z"/><path class="e" d="M70.98,130.051c-.752-2.085-1.545-4.333-2.361-6.685,1.556-10.979,3.271-22.881,3.261-23.491a28.925,28.925,0,0,0-1.6-6.282l-.576-1.2c.865-1.139,2.448-4.04,3.181-4.864h6.083c.7.787,2.915,3.83,3.718,4.884L82.21,94.37c-.365,1.5-1.225,5.755-1.225,6.4,0,.356,1.565,12.42,2.752,22.6-2.862,8.263-5.439,15.229-6.945,18.435H75.576C74.5,139.506,72.869,135.29,70.98,130.051Z"/><path class="c" d="M71.7,86.84c-2.594,2.931-4.717,6.239-7.057,9.367a2.006,2.006,0,0,0,.717,2.736,2.06,2.06,0,0,0,2.737-.718c1-1.333,1.942-2.706,2.922-4.052q.457-.629.921-1.253c.168-.225.336-.451.506-.675a4.077,4.077,0,0,0,.505-.663l-.159.206.153-.2.228-.29q.222-.281.447-.558c.3-.364.6-.723.908-1.074A2,2,0,0,0,71.7,86.84Z"/><path class="c" d="M87.678,96.137c-2.412-3.224-4.595-6.634-7.269-9.655a2.011,2.011,0,0,0-2.828,0,2.047,2.047,0,0,0,0,2.828q.479.542.932,1.1c.16.195.317.392.473.589l.241.306c.279.358-.1-.133.011.013q1.01,1.319,1.983,2.662c1.007,1.387,1.976,2.8,3,4.173a2.193,2.193,0,0,0,1.195.92,2.05,2.05,0,0,0,1.542-.2,2.021,2.021,0,0,0,.717-2.736Z"/><path class="c" d="M65.994,139.1c-4.165-7.22-8.294-14.462-12.32-21.76q-3-5.437-5.91-10.922-1.389-2.627-2.751-5.267-.207-.4-.412-.8-.233-.71-.218-.206c-.2.434.738-.6.83-.695.734-.765,1.486-1.511,2.245-2.251,1.846-1.8-.983-4.627-2.829-2.828-1.427,1.391-3.75,3.087-4.145,5.148-.369,1.93,1.275,4.047,2.119,5.668q3.169,6.088,6.479,12.1c4.384,8,8.9,15.927,13.458,23.829,1.286,2.23,4.744.218,3.454-2.018Z"/><path class="c" d="M118.76,191.726a3.824,3.824,0,0,1,.036.5l3.414-1.414h0l.515.883c.175.868.054.578.053.348l-3.414,1.415h0l-.514-.882c-.189-1.06-.032-.177,0,.093.09.863.175,1.728.26,2.592.361,3.641.738,7.28,1.1,10.921q.517,5.247.978,10.5.207,2.388.395,4.778.047.584.091,1.167l.029.388q-.069.956.611-.244c-.233-.191-1.7.125-2.025.147-5.854.409-11.735.717-17.6.594-5.28-.11-11.38-.458-15.9-3.463a17.925,17.925,0,0,1-5.788-6.48,29.537,29.537,0,0,1-2.349-7.988c-.326-1.612-.453-3.364-.9-4.942a2.752,2.752,0,0,0-3.958-1.726c-1.59.873-1.5,3.013-1.785,4.57-.315,1.754-.658,3.5-1.067,5.239a16.7,16.7,0,0,1-9.837,11.946c-5.833,2.479-12.255,2.913-18.513,3.05-3.543.078-7.1.025-10.631-.235-.353-.026-.707-.054-1.06-.085q-.342-.03-.683-.064a.734.734,0,0,1,.446.5,13.777,13.777,0,0,0,.215-2.468c.164-1.811.342-3.62.524-5.429.817-8.113,1.717-16.217,2.406-24.342.218-2.565-3.784-2.55-4,0-.619,7.293-1.405,14.571-2.153,21.852-.319,3.115-.635,6.231-.905,9.352-.139,1.612.044,3.106,1.545,4.039,1.266.787,3.317.634,4.763.721a103.4,103.4,0,0,0,18.552-.421c6.155-.743,12.626-2.465,17.271-6.79a20.147,20.147,0,0,0,5.356-8.5,37.991,37.991,0,0,0,1.038-4.237q.315-1.529.59-3.064a11.449,11.449,0,0,1,.486-2.777l-.718.718-1.3-.14-.515-.883a55.486,55.486,0,0,1,1.15,6c.3,1.427.6,2.866,1.009,4.266a21.135,21.135,0,0,0,5.37,8.921,19.984,19.984,0,0,0,8.757,5.213,44.268,44.268,0,0,0,9.522,1.524,158.134,158.134,0,0,0,20.055-.433c1.367-.093,3.183.059,4.4-.631,1.946-1.109,1.654-3.164,1.5-5.066q-.456-5.765-1.012-11.521c-.446-4.668-.936-9.332-1.4-14-.139-1.407.033-3.949-.962-5.114-1.155-1.352-3.419-.229-3.414,1.414a2.093,2.093,0,0,0,.6,1.6,2.03,2.03,0,0,0,3.415-1.414,3.824,3.824,0,0,0-.036-.5c-.2-2.549-4.2-2.571-4,0Z"/><path class="c" d="M80.634,98.564c-2.828,0-5.656-.059-8.484-.06a2,2,0,0,0,0,4c2.828,0,5.656.059,8.484.06a2,2,0,0,0,0-4Z"/><path class="c" d="M81.011,92.13c-.583,2.337-1.339,4.632-1.985,6.952a9.81,9.81,0,0,0-.43,4.151c.861,7.08,1.771,14.154,2.6,21.238a2.062,2.062,0,0,0,2,2,2.012,2.012,0,0,0,2-2c-.82-7.022-1.718-14.035-2.575-21.052a15.3,15.3,0,0,0-.189-1.631c-.066-.28-.147.552-.022.188.046-.132.064-.281.1-.416.124-.515.269-1.025.412-1.535.637-2.279,1.379-4.535,1.951-6.832.624-2.5-3.233-3.563-3.857-1.063Z"/><path class="c" d="M95.782,79.335c-2.084,7.96-4.671,15.8-7.217,23.626-3.067,9.428-6.226,18.834-9.648,28.14-.728,1.979-1.469,3.953-2.247,5.913-.664,1.674-.872,2.223-1.605,3.776l1.727-.99H75.576l1.727.991c-.233-.493-.454-.991-.672-1.491-.063-.144-.124-.288-.185-.432.192.453-.029-.07-.056-.135-.159-.388-.319-.776-.476-1.165-.672-1.667-1.313-3.347-1.943-5.031-1.62-4.331-3.16-8.692-4.671-13.062q-4.923-14.234-9.409-28.616C58.7,87.031,57.523,83.2,56.5,79.321c-.654-2.488-4.514-1.433-3.857,1.063,2.109,8.024,4.729,15.929,7.305,23.811,3.107,9.507,6.3,18.991,9.777,28.371,1.276,3.444,2.547,6.921,4.12,10.243a1.971,1.971,0,0,0,1.727.99h1.216a1.972,1.972,0,0,0,1.727-.991c3.3-7,5.695-14.5,8.216-21.8q4.983-14.431,9.514-29.017c1.188-3.845,2.371-7.7,3.39-11.591.653-2.492-3.2-3.556-3.857-1.063Z"/><path class="c" d="M104.862,114.432q2.145-3.883,4.2-7.815c.977-1.875,2.031-3.737,2.909-5.66a3.627,3.627,0,0,0-.1-3.495,15.456,15.456,0,0,0-2.448-2.694c-1.814-1.832-4.642,1-2.828,2.829a17.609,17.609,0,0,1,1.885,1.983c0-.006-.083-.395-.077-.393s-.172.328-.22.423q-.366.714-.733,1.428-1.19,2.315-2.4,4.62-1.784,3.4-3.64,6.755c-1.246,2.255,2.207,4.275,3.454,2.019Z"/><path class="c" d="M89.828,141.117q4.13-7.156,8.16-14.369a2,2,0,0,0-3.454-2.019q-4.016,7.221-8.159,14.37a2,2,0,1,0,3.453,2.018Z"/><path class="c" d="M30.07,112.947c.877,11.776,1.672,23.565,1.89,35.375.048,2.571,4.048,2.579,4,0-.218-11.81-1.013-23.6-1.89-35.375-.19-2.552-4.191-2.572-4,0Z"/><path class="c" d="M120.366,151.293c.125-12.8.988-25.578,1.93-38.34.19-2.568-3.811-2.555-4,0-.942,12.762-1.805,25.54-1.93,38.34-.025,2.575,3.975,2.577,4,0Z"/><path class="f" d="M111.587,112.443H97.933a1.137,1.137,0,0,0-1.137,1.136v3.944a1.132,1.132,0,0,0,1.132,1.136h13.654a1.136,1.136,0,0,0,1.137-1.136v-3.944A1.132,1.132,0,0,0,111.587,112.443Z"/><path class="c" d="M111.739,110.443H99.98c-1.207,0-2.687-.231-3.76.441A3.1,3.1,0,0,0,94.8,113.49c-.037,1.056,0,2.119,0,3.176,0,.326-.014.656,0,.982a3.045,3.045,0,0,0,2.066,2.863,7.537,7.537,0,0,0,2.261.148H108.6c1.1,0,2.233.074,3.33-.019a3.021,3.021,0,0,0,2.785-2.963c.044-1.03,0-2.072,0-3.1,0-.382.016-.767,0-1.149a3.064,3.064,0,0,0-2.98-2.982,2.014,2.014,0,0,0-2,2,2.045,2.045,0,0,0,2,2c-.546-.055-1.078-.693-1.02-.953a1.785,1.785,0,0,0,0,.358v2.68a3.919,3.919,0,0,0,0,1.06c.094.275.237-.551.3-.63l.719-.3H98.1a1.3,1.3,0,0,0-.324,0l.722.3.3.719a1.123,1.123,0,0,0,0-.174,6.943,6.943,0,0,0,0-1.117c0-.894.073-1.822,0-2.714a.966.966,0,0,0,0-.228v-.011q0-.4-.3.712c-.664.664-.982.206-.4.3a21.977,21.977,0,0,0,3.276,0h10.368C114.313,114.443,114.317,110.443,111.739,110.443Z"/><path class="g" d="M64.171,33.076a13.427,13.427,0,0,0-7.785,2.014,10.3,10.3,0,0,0-4.692,5.9c-1.4,3.573-1.123,7.17-3.044,9.178a4.219,4.219,0,0,0-4.331-3.08,5.1,5.1,0,0,0-1.8.367,36.509,36.509,0,0,1-1.364-11.283c.579-13.7,3.374-19.2,12.679-24.181C58.02,4.031,67.643,2.035,76.14,2.035c8.2,0,14.631,1.75,21.177,6.56,6.183,4.546,10.247,13.274,13.2,18.538,4.561,8.117.6,13.331-1.063,20.359a5.056,5.056,0,0,0-1.886-.4,4.448,4.448,0,0,0-3.212,1.175l-1.586,1.525-.235-.319c-2.511-3.416-4.034-12.705-9.081-16.384s-14.8-4.843-20.568-1.508Z"/><path class="h" d="M104.094,63.167a29.755,29.755,0,0,1-1.836,5.612c-1.106,3-7.991,14.694-16.148,16.506"/><path class="h" d="M47.715,63.066A34.04,34.04,0,0,0,54.69,77.341c4.064,4.864,8.443,7.81,13.806,8.57"/><path class="c" d="M70.869,77.113a19.514,19.514,0,0,0,5.287.655,21.661,21.661,0,0,0,3.569-.29,7.5,7.5,0,0,0,1.655-.441,2.2,2.2,0,0,0,1.2-.919,2.044,2.044,0,0,0,.2-1.541,2.019,2.019,0,0,0-2.46-1.4,7.275,7.275,0,0,1-1.5.414c-.088.016-.176.031-.265.045-.231.036-.363-.052.063-.006a3.853,3.853,0,0,0-.664.067c-.6.048-1.2.068-1.8.068-.574,0-1.149-.017-1.722-.059-.246-.018-.491-.04-.736-.068-.08-.009-.451-.053-.089-.009s.018,0-.062-.012a14.12,14.12,0,0,1-1.615-.364,2,2,0,1,0-1.063,3.857Z"/><path class="c" d="M74.978,63.224a26.336,26.336,0,0,1,.616,2.817l-.072-.531a1.68,1.68,0,0,1,.011.388l.071-.531a.9.9,0,0,1-.043.175l.2-.478a.679.679,0,0,1-.062.112l.313-.4a.56.56,0,0,1-.092.09l.405-.312a2.161,2.161,0,0,1-.223.118l.477-.2a1.639,1.639,0,0,1-.376.11l.532-.072a1.438,1.438,0,0,1-.353,0l.531.071c-.133-.018-.263-.051-.4-.069a1.511,1.511,0,0,0-.8-.035,1.492,1.492,0,0,0-.744.237,2,2,0,0,0-.717,2.736,1.91,1.91,0,0,0,1.195.919c.352.048.694.136,1.053.152a3.458,3.458,0,0,0,1.614-.393,2.453,2.453,0,0,0,1.323-1.6,3.775,3.775,0,0,0-.014-1.662c-.153-.908-.363-1.807-.6-2.7a2,2,0,0,0-2.46-1.4,2.03,2.03,0,0,0-1.2.919,2.106,2.106,0,0,0-.2,1.542Z"/><path class="h" d="M54.523,10.4c5.882-6.555,13.7-8.367,21.408-8.367A34.924,34.924,0,0,1,97.548,9.141a31.476,31.476,0,0,1,6.092,6.345c3.95,3.865,7.1,12.31,6.865,20.685a44.531,44.531,0,0,1-1.266,10.814"/><path class="h" d="M42.512,46.985a35.815,35.815,0,0,1-1.248-10.814c.487-11.525,3.174-16.725,8.721-21.736"/><path class="c" d="M105.774,49.677a2.6,2.6,0,0,1,2.265-.54,2.07,2.07,0,0,1,1.08.462c-.287-.211.535.728.223.231a5.176,5.176,0,0,1,.773,2.088,11.959,11.959,0,0,1,.077,3.087,13.139,13.139,0,0,1-1.593,4.951c-.972,1.793-2.436,3.649-4.679,3.358a2.01,2.01,0,0,0-2,2,2.051,2.051,0,0,0,2,2c5.211.676,8.412-4.952,9.714-9.165,1.168-3.779,1.116-9.641-2.579-12.059a6.807,6.807,0,0,0-8.109.758c-1.925,1.718.912,4.538,2.828,2.829Z"/><path class="c" d="M48.944,46.848a6.843,6.843,0,0,0-7.455-1.111,6.506,6.506,0,0,0-3.4,4.378A16.319,16.319,0,0,0,40.454,63c1.673,2.489,4.315,4.733,7.517,4.317a2.066,2.066,0,0,0,2-2,2.012,2.012,0,0,0-2-2c-2.242.291-3.708-1.565-4.68-3.358A13.1,13.1,0,0,1,41.7,55.005a12.139,12.139,0,0,1,.077-3.087,5.186,5.186,0,0,1,.773-2.088c-.32.509.513-.444.224-.231a1.953,1.953,0,0,1,.949-.434,2.63,2.63,0,0,1,2.4.512c1.915,1.709,4.754-1.111,2.828-2.829Z"/><path class="c" d="M64.171,32.076c-4.307.02-8.9,1.35-11.808,4.733a15.714,15.714,0,0,0-2.8,5.2c-.768,2.206-.917,4.575-1.719,6.766a2.017,2.017,0,0,0,1.4,2.46,2.042,2.042,0,0,0,2.46-1.4c.7-1.921.888-3.988,1.46-5.948.152-.524.332-1.038.532-1.545,0-.013.238-.584.091-.237.075-.177.154-.353.236-.526.165-.351.343-.7.541-1.029.1-.17.207-.338.318-.5,0,0,.361-.477.177-.249a7.935,7.935,0,0,1,1.872-1.691c.412-.269.84-.515,1.274-.746q.293-.156.591-.3c.051-.024.579-.255.3-.142a12.26,12.26,0,0,1,5.074-.844c2.573-.012,2.578-4.012,0-4Z"/><path class="c" d="M73.9,34.3a16.677,16.677,0,0,1,9.727-1.586c3.071.293,6.569,1.236,8.992,3.239,4.7,3.885,4.822,10.783,8.194,15.521a2.056,2.056,0,0,0,2.737.718,2.017,2.017,0,0,0,.717-2.737,27.9,27.9,0,0,1-2.788-6.119,34.212,34.212,0,0,0-3.8-7.679C94.114,30.727,87.888,28.783,82,28.617a19.6,19.6,0,0,0-10.12,2.232c-2.247,1.257-.232,4.713,2.019,3.454Z"/><path class="c" d="M56.661,11.211c3.133-4.293,8.529-6.133,13.6-6.821A39.488,39.488,0,0,1,87.175,5.549a28.093,28.093,0,0,1,13.632,9.328c3.2,4.061,5.513,8.753,7.987,13.265a13.161,13.161,0,0,1,1.6,9.037c-.6,3.08-1.863,5.989-2.679,9.013-.671,2.488,3.187,3.55,3.857,1.063.786-2.913,1.98-5.716,2.609-8.671a16.754,16.754,0,0,0-.548-9.47,62.945,62.945,0,0,0-4.12-8,68.479,68.479,0,0,0-4.659-7.473A32.664,32.664,0,0,0,89.649,2.174,41.5,41.5,0,0,0,71.083.293c-6.9.74-13.65,3.109-17.876,8.9a2.015,2.015,0,0,0,.718,2.737,2.045,2.045,0,0,0,2.736-.718Z"/><path class="c" d="M44.332,46.453A43.02,43.02,0,0,1,44.2,26.892a17.513,17.513,0,0,1,6.685-10.73,2.06,2.06,0,0,0,.718-2.736,2.015,2.015,0,0,0-2.737-.718,21.553,21.553,0,0,0-8.453,12.814,47.388,47.388,0,0,0,.061,22c.608,2.5,4.467,1.441,3.857-1.064Z"/><path class="c" d="M61.134,59.253a14.343,14.343,0,0,0,2.486.283,13.057,13.057,0,0,0,2.486-.255,2,2,0,0,0,.478-3.655,2.217,2.217,0,0,0-1.541-.2q-.309.062-.622.105l.532-.071a9.3,9.3,0,0,1-2.415.009l.531.071c-.291-.041-.582-.092-.872-.142a2.244,2.244,0,0,0-1.541.2,2,2,0,0,0-.718,2.737,1.955,1.955,0,0,0,1.2.919Z"/><path class="c" d="M89.667,55.393c-.239.041-.478.08-.719.113l.532-.072a9.139,9.139,0,0,1-2.422.047l.531.071c-.248-.035-.5-.08-.742-.128a2.135,2.135,0,0,0-1.541.2,2,2,0,0,0-.717,2.736,1.981,1.981,0,0,0,1.2.919,10.665,10.665,0,0,0,2.491.259,19.515,19.515,0,0,0,2.456-.29,2.01,2.01,0,0,0,1.2-.919,2.039,2.039,0,0,0,.2-1.541,2.017,2.017,0,0,0-.919-1.2l-.477-.2a2.022,2.022,0,0,0-1.064,0Z"/><path class="c" d="M45.787,63.6a37.467,37.467,0,0,0,6.88,14.191A28.273,28.273,0,0,0,66.1,87.037c5.572,1.724,11.97,2.25,17.613.593A30.7,30.7,0,0,0,97.24,79.6a35.329,35.329,0,0,0,8.782-16c.629-2.5-3.228-3.563-3.857-1.064-2.326,9.24-8.565,17.4-17.715,20.654a26.434,26.434,0,0,1-27.491-6.553,32.072,32.072,0,0,1-7.315-14.1c-.663-2.485-4.523-1.43-3.857,1.064Z"/><path class="a" d="M98.569,171.761c-.625-1.178-1.214-2.286-1.744-3.283l-3.276,1.338-1.5.025c-2.586-.054-6.179-.007-9.559.013-2.182.012-6.979,1.543-8.932,2.543a2.4,2.4,0,0,0-.892.846l-.871-.559c-2.6-1.666-8.051-1.943-12.232-2.613,0,0-2.266-.193-4.792-.411-2.181,4.107-5.088,9.591-7.436,14.19l2.632,1.547c2.976,2.088,6.03,4.013,8.856,6.25a2.661,2.661,0,0,0,.392,1.119c.737,1.1,2.045,2.472,3.7,2.18-.046.075-1.392,2.6.7,4.024,1.226.835,3.214.788,5.287.474a3.5,3.5,0,0,0,3.6,3.019,13.933,13.933,0,0,0,3.854-.741c2.186-.771,6.376-2.4,11.849-4.9,3.627-1.653,10.6-7.929,12.56-9.407l1.791-1.514,2.3-2.106C102.9,179.956,100.555,175.507,98.569,171.761Z"/><path class="c" d="M71.051,124.779c1.016-7.159,2.093-14.314,3.015-21.487a8.442,8.442,0,0,0-.69-4.471c-.815-2.118-1.71-4.22-2.685-6.269-1.105-2.324-4.555-.3-3.454,2.018.864,1.817,1.664,3.677,2.375,5.559.163.43.324.863.46,1.3.058.188.094.392.162.576.138.374-.023-.007-.009-.1-.075.522-.116,1.052-.184,1.576-.847,6.52-1.9,13.536-2.847,20.232a2.067,2.067,0,0,0,1.4,2.46,2.014,2.014,0,0,0,2.46-1.4Z"/><path class="c" d="M59.032,172c1.179.186,2.364.338,3.548.49l.88.113.392.052c.035,0,.419.056.224.029-.231-.031.275.039.319.045l.388.056q.432.063.863.132a28.253,28.253,0,0,1,3.036.633c.442.123.876.268,1.306.429.229.086.066.04-.063-.028.085.045.176.081.262.124.2.1.4.215.6.336a2.019,2.019,0,0,0,2.736-.717,2.042,2.042,0,0,0-.718-2.737,16.038,16.038,0,0,0-5.905-1.866c-1.239-.205-2.486-.365-3.733-.526q-.825-.1-1.649-.213c-.232-.03.243.035-.134-.018l-.374-.053q-.457-.066-.914-.138a2.051,2.051,0,0,0-2.46,1.4,2.023,2.023,0,0,0,1.4,2.46Z"/><path class="c" d="M59.212,189.437c-2.662-2.039-5.491-3.844-8.235-5.766a2.011,2.011,0,0,0-2.737.717,2.051,2.051,0,0,0,.718,2.736c2.745,1.923,5.573,3.728,8.235,5.766a2.005,2.005,0,0,0,1.541.2,2,2,0,0,0,1.4-2.46,2.363,2.363,0,0,0-.919-1.195Z"/><path class="c" d="M74.355,177.071a2.3,2.3,0,0,1-.242-2.292c.261-.695.867-.871,1.446-1.1a30.224,30.224,0,0,1,5.883-1.723,45.383,45.383,0,0,1,6.906-.138c1.734,0,3.467.028,5.2,0,2.571-.043,2.579-4.043,0-4-2.259.038-4.518,0-6.778.008a32.5,32.5,0,0,0-8.337.714,36.085,36.085,0,0,0-3.559,1.137,9.112,9.112,0,0,0-3.182,1.625,6.36,6.36,0,0,0-.167,8.6c1.809,1.837,4.637-.991,2.829-2.828Z"/><path class="c" d="M78.125,174.628c-5.466,3.3-11.269,6.017-16.481,9.718-2.317,1.645-4.551,3.195-4.832,6.283-.294,3.232,2.777,6.66,6.107,6.317l-1.727-3.01a5.232,5.232,0,0,0,.131,5.542c1.875,2.565,5.334,2.29,8.115,1.895l-2.532-1.929A5.508,5.508,0,0,0,69,203.3a6.13,6.13,0,0,0,4.989,1.009c2.929-.382,5.722-1.68,8.432-2.8a51.3,51.3,0,0,0,9.459-4.524c2.556-1.742,4.95-3.727,7.326-5.7.541-.45,1.08-.9,1.621-1.35.219-.181.438-.363.659-.542.1-.082.585-.469.386-.311s.317-.248.451-.359c.2-.161.388-.327.581-.491l1.073-.907c1.969-1.663-.873-4.48-2.828-2.828-.552.466-1.106.929-1.655,1.4-.375.321.584-.447-.042.041-.17.134-.342.265-.511.4-.347.277-.689.561-1.032.845-1.9,1.578-3.788,3.183-5.752,4.685-4.487,3.432-9.732,5.479-14.991,7.448a16.48,16.48,0,0,1-4.033,1.1,2.054,2.054,0,0,1-1.7-.258,1.818,1.818,0,0,1-.38-.471c-.082-.138-.166-.484-.143-.233a2.046,2.046,0,0,0-2.532-1.929c-.86.123-3.366.575-3.89-.464a1.116,1.116,0,0,1,.014-.64c.013-.073.2-.658.1-.371-.089.255.016-.027.048-.085.665-1.212-.143-3.172-1.727-3.009-2.2.226-2.629-2.422-1.249-3.665a43.073,43.073,0,0,1,4.332-3.1c4.492-3.025,9.5-5.3,14.141-8.1,2.2-1.329.193-4.79-2.018-3.454Z"/><path class="c" d="M79.7,181.632c-2.215,1.039-4.345,2.283-6.485,3.466-2.447,1.352-4.883,2.723-7.332,4.071a2,2,0,0,0,2.019,3.454c2.449-1.348,4.885-2.719,7.331-4.071,2.14-1.183,4.271-2.427,6.486-3.466a2.017,2.017,0,0,0,.718-2.736,2.046,2.046,0,0,0-2.737-.718Z"/><path class="c" d="M98.657,82.653a106.788,106.788,0,0,1,14.1,5.9,66.413,66.413,0,0,1,11.412,7.16c3.514,2.909,5.865,6.722,7.931,10.738a131.285,131.285,0,0,1,5.757,13.421c1.821,4.778,3.534,9.594,5.048,14.479.79,2.551,1.515,5.12,2.237,7.691s1.563,5.107,2.053,7.728a25.266,25.266,0,0,1-.884,13.281,19.738,19.738,0,0,1-7.671,9.373c-5,3.051-10.091,5.983-15.323,8.625-2.626,1.326-5.3,2.571-7.959,3.823q-1.893.889-3.791,1.769-.928.432-1.859.861l-.713.33-.35.162q-.7.284.009.068l.883.514c-.584-.473-.958-1.836-1.3-2.527q-.8-1.611-1.619-3.212-1.842-3.608-3.733-7.188-1.8-3.429-3.621-6.847-.711-1.341-1.424-2.681-.308-.581-.614-1.16c-.089-.167-.165-.349-.269-.507-.438-.67.236-.172-.125.352l-.717.718a27.414,27.414,0,0,1,3.73-2.044l3.839-2.05q3.73-1.992,7.457-3.991c4.768-2.556,9.528-5.128,14.3-7.679,2.271-1.214.253-4.669-2.019-3.454-7.257,3.881-14.5,7.792-21.756,11.671q-2.894,1.545-5.788,3.087c-1.763.939-3.639,2.077-2.852,4.405a42.459,42.459,0,0,0,3.06,5.87c2.769,5.214,5.541,10.429,8.188,15.707.532,1.061,1.023,2.147,1.57,3.2.967,1.86,2.67,2.181,4.477,1.361,3.576-1.623,7.13-3.3,10.673-4.995,3.8-1.816,7.541-3.721,11.214-5.781,3.465-1.944,7.22-3.809,10.357-6.262a24.755,24.755,0,0,0,6.51-8.021,24.345,24.345,0,0,0,2.446-9.681,34.985,34.985,0,0,0-1.423-12.077c-1.139-4.064-2.277-8.133-3.539-12.16a229.541,229.541,0,0,0-8.406-22.675c-2.979-6.867-6.5-13.585-12.574-18.188a84.128,84.128,0,0,0-20.095-10.842c-1.907-.747-3.832-1.448-5.762-2.133-2.43-.863-3.476,3-1.063,3.857Z"/><path class="c" d="M51.921,78.8A114.276,114.276,0,0,0,36.865,85.1a72,72,0,0,0-12.078,7.668c-3.768,3.082-6.383,7.192-8.6,11.473a136.269,136.269,0,0,0-6.111,14.178c-1.928,5.051-3.743,10.14-5.332,15.309-.832,2.707-1.578,5.438-2.36,8.159a60.365,60.365,0,0,0-2.022,8.243c-.629,4.482-.541,9.707,1.112,13.986A24.65,24.65,0,0,0,9.76,175.092a86.756,86.756,0,0,0,7.615,4.574c2.734,1.569,5.5,3.09,8.306,4.524,5.248,2.681,10.632,5.107,15.981,7.578a2.059,2.059,0,0,0,2.737-.717,2.017,2.017,0,0,0-.718-2.737,302.048,302.048,0,0,1-27.53-14,30.7,30.7,0,0,1-5.615-3.743,22.329,22.329,0,0,1-3.869-4.887c-2.171-3.658-2.743-7.837-2.618-12.046.154-5.208,2.049-10.315,3.486-15.28q2.183-7.538,4.9-14.9c1.7-4.606,3.436-9.216,5.489-13.677,1.937-4.21,4.117-8.648,7.349-12.028,3.312-3.461,7.687-5.879,11.819-8.22a99.387,99.387,0,0,1,15.892-6.882c2.409-.855,1.371-4.721-1.063-3.857Z"/><path class="c" d="M28.342,185.23c3.065,1.394,6.08,2.907,9.133,4.328q1.954.911,3.911,1.813c1.478.683,3.041,1.235,4.362-.151a9.293,9.293,0,0,0,1.335-2.42q.729-1.487,1.48-2.961,1.612-3.182,3.272-6.338c2.056-3.931,4.142-7.846,6.22-11.764,1.052-1.984,2.256-4.247-.177-5.854-1.475-.975-3.206-1.708-4.767-2.54l-4.651-2.485c-6.556-3.507-13.1-7.041-19.656-10.548-2.269-1.214-4.292,2.238-2.018,3.454,4.77,2.551,9.53,5.123,14.3,7.679q3.623,1.941,7.247,3.879l3.835,2.047a29.048,29.048,0,0,1,3.945,2.159l-.718-.718c-.4-.576.3-.985-.083-.432a4.723,4.723,0,0,0-.263.5l-.606,1.144-1.48,2.786q-1.816,3.42-3.621,6.847-1.884,3.585-3.733,7.188-.786,1.539-1.556,3.087c-.358.721-.755,2.159-1.363,2.652l.882-.514c.233-.094.533.2.01-.068-.287-.149-.591-.273-.884-.409l-1.471-.68q-1.769-.82-3.536-1.647c-2.448-1.147-4.867-2.367-7.328-3.486a2.062,2.062,0,0,0-2.737.718,2.016,2.016,0,0,0,.718,2.736Z"/><path class="c" d="M50.158,186.1q4.509-9.276,9.217-18.454a2.046,2.046,0,0,0-.717-2.736,2.022,2.022,0,0,0-2.737.717Q51.214,174.8,46.7,184.08a2.054,2.054,0,0,0,.718,2.737,2.018,2.018,0,0,0,2.736-.718Z"/><path class="c" d="M93.664,168.976c2.745,5.9,5.549,11.778,8.191,17.728a2.015,2.015,0,0,0,2.737.717,2.049,2.049,0,0,0,.717-2.736c-2.642-5.95-5.446-11.826-8.191-17.728a2.017,2.017,0,0,0-2.737-.718,2.046,2.046,0,0,0-.717,2.737Z"/><path class="c" d="M269.426,204.024h33.53c2.573,0,2.578-4,0-4h-33.53c-2.574,0-2.578,4,0,4Z"/><path class="h" d="M269.478,112.594a70.68,70.68,0,0,0,16.134,2.318c5.145.013,12.465-.8,17.49-2.8"/><path class="c" d="M326.066,164.3c.13-8.526.548-17.041.55-25.57,0-2.573-4-2.578-4,0,0,8.529-.42,17.044-.55,25.57-.039,2.575,3.961,2.576,4,0Z"/><path class="c" d="M245.838,139.183c.026,8.465.96,16.878,1.24,25.33.085,2.568,4.086,2.579,4,0-.28-8.452-1.214-16.865-1.24-25.33-.008-2.573-4.008-2.578-4,0Z"/><path class="c" d="M303.466,100.882c-1.857,7.161-4.162,14.219-6.43,21.259-2.731,8.477-5.542,16.935-8.59,25.3-.643,1.766-1.3,3.528-1.985,5.277q-.395,1-.808,2c-.208.5.165-.377-.042.1-.059.134-.116.269-.175.4q-.185.418-.377.834l1.727-.991h-1.081l1.727.991c-.213-.456-.415-.915-.613-1.377.2.457-.119-.287-.175-.424q-.241-.586-.475-1.177c-.589-1.484-1.152-2.978-1.7-4.475-1.414-3.831-2.76-7.686-4.08-11.549q-4.394-12.85-8.394-25.834c-1.052-3.431-2.1-6.868-3-10.341-.646-2.49-4.506-1.434-3.857,1.063,1.887,7.262,4.231,14.419,6.537,21.556,2.733,8.457,5.545,16.895,8.6,25.243,1.148,3.138,2.294,6.3,3.711,9.333a1.97,1.97,0,0,0,1.727.991h1.081a1.969,1.969,0,0,0,1.727-.991c2.951-6.319,5.088-13.08,7.339-19.669q4.4-12.865,8.4-25.865c1.077-3.516,2.149-7.039,3.072-10.6.647-2.493-3.21-3.557-3.857-1.063Z"/><path class="c" d="M277.058,154.668q-5.034-8.726-9.944-17.521-2.407-4.339-4.758-8.711-1.209-2.252-2.4-4.514c-.682-1.3-1.907-2.931-2.121-4.376v1.064c.083-.456.791-.987,1.122-1.326.522-.536,1.054-1.061,1.59-1.583,1.846-1.8-.984-4.627-2.829-2.828-1.243,1.212-3.151,2.625-3.679,4.34-.575,1.869,1,3.931,1.826,5.508q2.8,5.385,5.729,10.7c3.91,7.138,7.939,14.211,12.006,21.261,1.286,2.229,4.744.217,3.454-2.019Z"/><path class="c" d="M312.018,132.6q2.187-4,4.291-8.033.5-.966,1-1.935a12.863,12.863,0,0,0,1.13-2.417c.572-2.129-1.271-3.639-2.6-4.983-1.814-1.832-4.643,1-2.829,2.828.516.521,1.029,1.045,1.525,1.585s-.236-.409.041-.427a7.764,7.764,0,0,0-.421.814q-.9,1.762-1.816,3.518c-1.23,2.358-2.493,4.7-3.77,7.031a2,2,0,0,0,3.454,2.019Z"/><path class="c" d="M298.461,156.687c2.115-3.666,4.209-7.345,6.242-11.057a2,2,0,1,0-3.454-2.018c-2.033,3.712-4.127,7.39-6.242,11.056a2,2,0,0,0,3.454,2.019Z"/><path class="c" d="M323.966,199.558c.56,5.4,1.344,10.768,1.834,16.17a7.306,7.306,0,0,0,.148,1.778l.015.2q1.35-.944.445-.78a3.136,3.136,0,0,0-.57.042q-1.581.114-3.163.213c-2.242.138-4.485.25-6.73.32a64.253,64.253,0,0,1-12.671-.426,21.26,21.26,0,0,1-6.579-1.9,15.019,15.019,0,0,1-5.019-4.55,15.806,15.806,0,0,1-2.373-5.493c-.261-1.084-.492-2.175-.712-3.269-.275-1.371-.376-2.86-.759-4.2a2.642,2.642,0,0,0-2.819-1.965,2.679,2.679,0,0,0-2.353,2.437c-.494,2.505-.848,5.033-1.5,7.505a14.064,14.064,0,0,1-7.762,9.21c-4.368,2.032-9.254,2.569-14.01,2.8q-4.175.2-8.359.07c-1.367-.042-2.733-.11-4.1-.219a4.3,4.3,0,0,0-.689-.059q-.669-.178-.042.3.41.7.329-.065a11.042,11.042,0,0,0,.173-1.911c.524-5.466,1.284-10.907,1.877-16.366a2.012,2.012,0,0,0-2-2,2.047,2.047,0,0,0-2,2c-.554,5.095-1.252,10.174-1.769,15.272-.24,2.366-1,5.771,2.079,6.594a17.961,17.961,0,0,0,3.479.333c1.279.077,2.56.124,3.841.148a76.922,76.922,0,0,0,15.282-.941c4.982-.914,10.02-2.784,13.487-6.623a18.138,18.138,0,0,0,3.919-7.044c.351-1.193.594-2.423.842-3.641a40.323,40.323,0,0,1,.935-5l-.515.883-.346.215h-1.063l-.342-.215-.515-.883a30.291,30.291,0,0,1,.8,4.225c.259,1.3.534,2.609.857,3.9a18.323,18.323,0,0,0,2.893,6.333,19.566,19.566,0,0,0,5.939,5.513,22.384,22.384,0,0,0,7.2,2.356,68.79,68.79,0,0,0,14.363.679c2.468-.077,4.935-.2,7.4-.362,2.15-.138,5.286.229,6.342-2.1.593-1.309.137-3.107,0-4.491-.152-1.534-.329-3.066-.511-4.6-.414-3.462-.85-6.921-1.21-10.39a2.057,2.057,0,0,0-2-2,2.014,2.014,0,0,0-2,2Z"/><path class="i" d="M300.789,110.719c-4.4,2.872-9.857,3.734-14.3,3.734-5.857,0-10.364-1.5-12.857-3.351-2.237-1.66-3.1-5.829-2.452-12.147l.081-.791,2.758.763A44.674,44.674,0,0,0,287.1,100.31c4.329-.272,7.043-1.184,11.744-2a2.9,2.9,0,0,1,2.5.679,8.192,8.192,0,0,1,2.011,5.974c-.093,1.237.216,3.648-1.271,4.823Q301.458,110.284,300.789,110.719Z"/><path class="c" d="M299.78,108.992c-6.013,3.83-14.4,4.468-21.138,2.345a13.629,13.629,0,0,1-3.58-1.666,3.7,3.7,0,0,1-1.4-1.913c-1.111-3-.721-6.487-.4-9.594l-2.532,1.928c6.9,1.911,13.826,2.889,20.957,1.667,1.676-.287,3.333-.669,5-1.009a9.163,9.163,0,0,1,2.819-.488c.613.1.913.675,1.179,1.2a8.708,8.708,0,0,1,.654,4.252,6.253,6.253,0,0,1-.176,1.94c-.235.669-.8.951-1.38,1.34-2.13,1.424-.129,4.89,2.019,3.454,1.892-1.266,3.133-2.559,3.425-4.891a17.212,17.212,0,0,0-.147-5.52,8.055,8.055,0,0,0-2.972-4.995c-1.976-1.314-4.352-.583-6.484-.147a49.144,49.144,0,0,1-12.352,1.429,52.048,52.048,0,0,1-11.478-2.087,2.03,2.03,0,0,0-2.531,1.929c-.373,3.642-.669,7.668.734,11.145,1.242,3.08,3.9,4.6,6.925,5.665,7.79,2.749,17.873,1.935,24.88-2.528C303.963,111.067,301.959,107.6,299.78,108.992Z"/><path class="f" d="M318.042,130.472H304.547a1.216,1.216,0,0,0-1.217,1.216v3.784a1.211,1.211,0,0,0,1.211,1.216h13.5a1.215,1.215,0,0,0,1.216-1.216v-3.784A1.21,1.21,0,0,0,318.042,130.472Z"/><path class="a" d="M289.457,207.666c-1.446.578-2.615,1.015-3.458,1.313a12.712,12.712,0,0,1-3.518.676A3.194,3.194,0,0,1,279.2,206.9c-1.893.286-3.708.329-4.828-.433-1.909-1.3-.681-3.605-.639-3.674-1.514.267-2.709-.988-3.381-1.99a2.378,2.378,0,0,1-.355-1.019c-2.311-1.83-4.79-3.432-7.235-5.116,2.477-4.855,5.674-10.856,7.675-14.623l.233.037c3.817.611,8.8.865,11.167,2.386l.8.51a2.195,2.195,0,0,1,.814-.773,26.115,26.115,0,0,1,8.155-2.322c3.086-.017,6.367-.06,8.728-.011l1.906.04c1.988,3.743,5.216,9.8,7.719,14.7-.97.758-1.665,1.3-1.665,1.3-1.787,1.349-8.156,7.079-11.467,8.588C293.931,205.823,291.435,206.876,289.457,207.666Z"/><path class="c" d="M318.273,128.472H306.514c-1.207,0-2.687-.231-3.76.441a3.1,3.1,0,0,0-1.424,2.606c-.037,1.056,0,2.119,0,3.176,0,.326-.014.656,0,.982a3.045,3.045,0,0,0,2.066,2.863,7.537,7.537,0,0,0,2.261.148h9.481c1.1,0,2.233.074,3.33-.019a3.019,3.019,0,0,0,2.784-2.963c.045-1.03,0-2.072,0-3.1,0-.382.017-.767,0-1.149a3.062,3.062,0,0,0-2.979-2.982,2.014,2.014,0,0,0-2,2,2.045,2.045,0,0,0,2,2c-.546-.055-1.078-.693-1.021-.953a1.862,1.862,0,0,0,0,.358v2.68a3.96,3.96,0,0,0,0,1.06c.095.275.238-.551.3-.63l.719-.3H304.633a1.3,1.3,0,0,0-.324,0l.722.3.3.719a1.123,1.123,0,0,0,0-.174,6.943,6.943,0,0,0,0-1.117c0-.894.073-1.822,0-2.714a.966.966,0,0,0,0-.228v-.011q0-.4-.3.712c-.664.664-.982.206-.4.3a21.991,21.991,0,0,0,3.277,0h10.368C320.847,132.472,320.851,128.472,318.273,128.472Z"/><path class="c" d="M270.133,182.01c1.092.172,2.189.313,3.286.454l.8.1.357.047.181.024.269.037.354.051q.394.058.788.121a25.876,25.876,0,0,1,2.772.578c.4.112.8.246,1.192.391.3.11-.062-.059-.1-.042.029-.014.207.1.239.113.188.093.369.2.547.307a2.019,2.019,0,0,0,2.736-.718,2.041,2.041,0,0,0-.717-2.736,14.735,14.735,0,0,0-5.433-1.721c-1.147-.19-2.3-.338-3.455-.487q-.753-.1-1.506-.2c-.249-.032.316.045-.075-.01l-.342-.048c-.279-.04-.557-.083-.835-.126a2.051,2.051,0,0,0-2.46,1.4,2.024,2.024,0,0,0,1.4,2.461Z"/><path class="c" d="M270.432,197.612c-2.431-1.862-5.013-3.51-7.519-5.265a2.011,2.011,0,0,0-2.737.718,2.052,2.052,0,0,0,.718,2.736c2.506,1.755,5.088,3.4,7.519,5.264a2,2,0,0,0,1.541.2,2,2,0,0,0,1.4-2.46,2.369,2.369,0,0,0-.919-1.195Z"/><path class="c" d="M284.292,186.349a1.783,1.783,0,0,1-.289-1.507,1.231,1.231,0,0,1,.916-1.135c.3-.139-.031.008.173-.076q.258-.1.519-.2.567-.215,1.141-.407c.808-.272,1.625-.517,2.452-.726.389-.1.78-.189,1.173-.267.146-.028.292-.055.439-.08.66-.113-.341.012.267-.037.915-.074,1.844-.036,2.761-.043,2.16-.016,4.321-.038,6.481,0,2.575.049,2.575-3.951,0-4-2.622-.05-5.245-.012-7.867.006a20.505,20.505,0,0,0-6.042,1.05c-1.883.589-4.225,1.2-5.41,2.887a5.985,5.985,0,0,0,.458,7.363c1.819,1.827,4.648-1,2.828-2.828Z"/><path class="c" d="M287.524,184.091c-5.014,3.026-10.334,5.521-15.113,8.919-2.175,1.546-4.3,3.071-4.447,6-.149,3,2.681,6.08,5.764,5.781L272,201.782a4.979,4.979,0,0,0,.113,5.227c1.739,2.44,5,2.188,7.612,1.818L277.2,206.9a5.3,5.3,0,0,0,2.455,4.013c1.719,1.064,3.835.783,5.711.341a57.217,57.217,0,0,0,9.249-3.589,35.447,35.447,0,0,0,4.7-2.248,46.438,46.438,0,0,0,3.925-2.822c1.265-.982,2.5-2,3.734-3.022q.714-.594,1.428-1.19c.221-.182.442-.366.664-.546.079-.064.69-.541.231-.19a2.067,2.067,0,0,0,.718-2.737,2.014,2.014,0,0,0-2.737-.717c-3.721,2.845-7.11,6.487-11.37,8.542-2.9,1.4-5.915,2.622-8.927,3.762a16.651,16.651,0,0,1-3.664,1.081,2.222,2.222,0,0,1-1.645-.118c-.251-.182-.493-.752-.474-.56a2.047,2.047,0,0,0-2.532-1.929c-.75.106-2.689.48-3.282-.233-.143-.171-.092-.313-.057-.509a3.989,3.989,0,0,1,.176-.563c-.024.074-.169.363-.045.136.664-1.219-.141-3.163-1.727-3.009-1.9.185-2.145-2.006-1.006-3.058a4.126,4.126,0,0,1,.582-.455q.558-.414,1.125-.815,1.157-.822,2.334-1.614c4.063-2.722,8.591-4.777,12.779-7.305,2.2-1.329.193-4.789-2.018-3.454Z"/><path class="c" d="M288.964,190.486c-2.023.949-3.968,2.084-5.922,3.164-2.233,1.235-4.457,2.487-6.693,3.717a2.02,2.02,0,0,0-.718,2.737,2.042,2.042,0,0,0,2.737.717c2.236-1.23,4.46-2.482,6.693-3.717,1.954-1.08,3.9-2.216,5.922-3.164a2.009,2.009,0,0,0,.717-2.737,2.055,2.055,0,0,0-2.736-.717Z"/><path class="c" d="M326.347,160.806c-7.442,3.98-14.868,7.991-22.314,11.963-1.668.889-4.528,1.74-5.031,3.794-.32,1.306.515,2.494,1.1,3.6q1.9,3.584,3.8,7.167c1.493,2.828,2.979,5.661,4.43,8.511q.915,1.794,1.8,3.6c.778,1.6,1.888,3.18,3.946,2.544a42.961,42.961,0,0,0,5.184-2.383q2.887-1.345,5.762-2.722,5.91-2.838,11.583-6.112c3.432-1.979,7.05-3.853,9.812-6.75a20.292,20.292,0,0,0,5.248-9.151,24.6,24.6,0,0,0,.2-10.509,82.36,82.36,0,0,0-2.424-8.616c-3.278-10.562-6.865-21.065-10.784-31.408a39.809,39.809,0,0,0-7.429-12.613,27.851,27.851,0,0,0-7.559-5.386,101.686,101.686,0,0,0-10.441-4.851c-1.547-.623-3.11-1.207-4.7-1.721-2.454-.8-3.505,3.066-1.063,3.857a85.679,85.679,0,0,1,13.348,5.724c3.6,1.89,6.813,3.985,9.266,7.282a35.514,35.514,0,0,1,3.326,5.568c.3.611.564,1.24.869,1.848.158.315-.219-.572-.058-.137.114.306.242.608.359.912.958,2.49,1.858,5,2.755,7.514,2.772,7.755,5.451,15.549,7.918,23.408,1.239,3.95,2.847,8.112,3.078,12.269a17.01,17.01,0,0,1-3.541,11.818,23.271,23.271,0,0,1-6.625,5.384c-2.86,1.711-5.75,3.376-8.688,4.953-2.821,1.514-5.7,2.9-8.594,4.274q-2.2,1.044-4.413,2.071a21.63,21.63,0,0,1-3.78,1.7h1.064l-.115-.036.717.717a16.951,16.951,0,0,1-1.3-2.538q-.7-1.409-1.415-2.808-1.647-3.225-3.337-6.427-1.578-3-3.172-6-.682-1.284-1.364-2.569l-.512-.964a4.532,4.532,0,0,0-.267-.507c-.417-.584.383-.151-.1.552l-.718.717a23.917,23.917,0,0,1,3.241-1.777q1.8-.958,3.593-1.918,3.384-1.807,6.767-3.622,6.3-3.378,12.594-6.764c2.271-1.214.253-4.668-2.019-3.454Z"/><path class="d" d="M245.238,162.476c.6.32,1.21.65,1.82.98.58.31,1.16.62,1.75.94,7.02,3.77,14.43,7.75,22.4,11.99a.876.876,0,0,1,.36,1.19c-2.07,3.94-8.72,16.29-11.4,21.98a.852.852,0,0,1-1.12.44c-3.42-1.58-7.69-3.55-12.2-5.74a2.14,2.14,0,0,1-.22-.1c-5.18-2.54-10.52-5.63-15.33-8.56"/><path class="c" d="M244.368,164.26q6.3,3.371,12.594,6.764,3.279,1.756,6.559,3.511,1.792.959,3.588,1.915a25.462,25.462,0,0,1,3.454,1.891l-.718-.717c-.456-.663.319-1.15-.1-.552a3.9,3.9,0,0,0-.222.419q-.278.526-.558,1.052-.647,1.221-1.3,2.442-1.624,3.058-3.239,6.124-1.648,3.135-3.265,6.285-.752,1.471-1.488,2.95a16.81,16.81,0,0,1-1.3,2.538l.718-.717-.115.036h1.063a18.35,18.35,0,0,1-3.212-1.432q-1.87-.87-3.739-1.748c-2.606-1.228-5.217-2.453-7.777-3.776-2.7-1.394-5.349-2.874-7.973-4.4a43.288,43.288,0,0,1-6.759-4.281,17.144,17.144,0,0,1-6.094-11.128c-.508-4.506.862-8.745,2.156-13,2.421-7.961,5.117-15.84,7.89-23.684,1.018-2.878,2.046-5.752,3.115-8.611.28-.75.584-1.492.862-2.242.154-.415-.248.449-.058.137.313-.512.513-1.117.776-1.658.551-1.133,1.14-2.248,1.791-3.327a20.751,20.751,0,0,1,9.257-8.826,83.652,83.652,0,0,1,14.985-6.611c2.439-.79,1.4-4.654-1.063-3.857a90.739,90.739,0,0,0-10.182,4.1,59.944,59.944,0,0,0-8.637,4.689c-5.044,3.446-8.444,8.69-10.726,14.294-3.793,9.312-6.9,18.983-9.984,28.545-.9,2.793-1.781,5.593-2.606,8.41a31.578,31.578,0,0,0-1.671,10.443A21.349,21.349,0,0,0,230.619,187.5a227.619,227.619,0,0,0,22.853,12.1,34.563,34.563,0,0,0,5.345,2.421c2,.531,3.037-1.042,3.786-2.582,1.288-2.648,2.644-5.264,4.006-7.875q2.136-4.1,4.309-8.173.856-1.615,1.715-3.231c.616-1.161,1.446-2.35,1.061-3.724-.549-1.959-3.377-2.8-4.993-3.666q-2.928-1.561-5.856-3.129-5.678-3.039-11.35-6.088c-1.7-.914-3.4-1.834-5.108-2.746-2.269-1.213-4.292,2.239-2.019,3.454Z"/><path class="i" d="M265.581,111.651A20.081,20.081,0,0,0,270.476,107a6.585,6.585,0,0,1-.442-1.415,7.293,7.293,0,0,1,.3-4.029c-1.363-5.465-6.609-8.342-9.638-8.872-5.17-.93-10.223-2.537-15.043-3.787a.533.533,0,0,0-.58.48c-.29,2.85-.717,5.577.373,7.517.716,1.275.719,1.474,3.074,3.145a63.08,63.08,0,0,1-7.548,2.23,1.968,1.968,0,0,0-1.243,2.884c2.619,4.383,8.32,7.949,13.018,8.87A17.032,17.032,0,0,0,265.581,111.651Z"/><path class="c" d="M261.4,97.178a18,18,0,0,0-12.023.385,76.059,76.059,0,0,1-7.807,2.486,5.724,5.724,0,0,0-3.046,1.442,3.975,3.975,0,0,0-1.025,3.078c.192,2.048,2.141,4.009,3.561,5.36a24.422,24.422,0,0,0,5.682,4.024,20.691,20.691,0,0,0,11.171,2.357,19.561,19.561,0,0,0,13.018-6.726c1.706-1.918-1.113-4.757-2.828-2.828a15.206,15.206,0,0,1-17.129,4.7,19.411,19.411,0,0,1-8.6-5.98c-.229-.287-.439-.586-.64-.893-.15-.23-.259-.466-.277-.367.021-.113-.119.049.045-.024a11.79,11.79,0,0,1,1.81-.46,55.147,55.147,0,0,0,6.456-2.052,14.927,14.927,0,0,1,10.57-.646c2.463.769,3.516-3.091,1.063-3.857Z"/><path class="c" d="M248.854,97.822a4.482,4.482,0,0,1-1.983-2.788,9.323,9.323,0,0,1-.094-2.6,9.718,9.718,0,0,1,.326-2.8l-.514.883.212-.182-.882.514.264-.036h-1.064c2.776.725,5.531,1.528,8.306,2.257,2.536.666,5.175,1.027,7.685,1.755a10.629,10.629,0,0,1,7.3,7.259c.662,2.484,4.522,1.43,3.857-1.064A14.662,14.662,0,0,0,261.226,90.75c-3.956-.793-7.834-1.818-11.722-2.891-1.626-.449-4.066-1.656-5.531-.346-1.271,1.137-1.125,3.546-1.207,5.135a10.054,10.054,0,0,0,1.021,5.375,9.706,9.706,0,0,0,3.048,3.253,2.013,2.013,0,0,0,2.736-.718,2.046,2.046,0,0,0-.717-2.736Z"/><path class="c" d="M270.655,98.182a5.22,5.22,0,0,0-1.9,2.009,8.64,8.64,0,0,0-.851,3.243,10.319,10.319,0,0,0,1.375,5.667,2.019,2.019,0,0,0,2.737.717,2.042,2.042,0,0,0,.717-2.736c-.093-.173-.184-.347-.27-.523-.044-.089-.086-.178-.128-.268-.09-.2-.081-.179.026.074a2.114,2.114,0,0,0-.154-.4c-.062-.175-.117-.351-.163-.53s-.076-.354-.109-.533c-.077-.42.024.393-.006-.066a10.748,10.748,0,0,1-.04-1.106,1.437,1.437,0,0,1,.034-.51q-.065.435-.011.1c.017-.1.035-.192.056-.288a3.233,3.233,0,0,1,.31-1q-.177.411-.041.126c.036-.071.074-.141.116-.209l.061-.1c.12-.172.082-.126-.113.136a2.291,2.291,0,0,0,.308-.314q.237-.2-.136.1c.065-.046.131-.091.2-.134a2,2,0,1,0-2.019-3.454Z"/><path class="a" d="M314.015,68.57a4.344,4.344,0,0,1,3.141-1.149,4.033,4.033,0,0,1,3.621,2.011c1.23,2.134,1.178,6.066.352,8.5a13.121,13.121,0,0,1-3.853,6.248,4.645,4.645,0,0,1-4.1.966A31.351,31.351,0,0,1,306.8,96.592a26.73,26.73,0,0,1-20.615,9.515,42.856,42.856,0,0,1-6.4-.854,24.907,24.907,0,0,1-14.349-8.48,31.344,31.344,0,0,1-6.22-11.611,4.662,4.662,0,0,1-4.043-.983,13.121,13.121,0,0,1-3.853-6.248c-.826-2.433-.878-6.365.353-8.5a4.032,4.032,0,0,1,3.621-2.011,4.342,4.342,0,0,1,3.14,1.149s-2.111-21.833,27.908-21.833S314.015,68.57,314.015,68.57Z"/><path class="h" d="M313.755,83.145a29.116,29.116,0,0,1-1.8,5.488c-1.082,2.938-7.815,14.369-15.791,16.142"/><path class="h" d="M258.622,83.047a33.279,33.279,0,0,0,6.821,13.959c3.974,4.757,8.256,7.637,13.5,8.381"/><path class="c" d="M281.252,96.826a19.149,19.149,0,0,0,5.183.642,21.164,21.164,0,0,0,3.5-.285,7.358,7.358,0,0,0,1.619-.432,2.2,2.2,0,0,0,1.195-.919,2.043,2.043,0,0,0,.2-1.541,2.02,2.02,0,0,0-2.46-1.4,7.082,7.082,0,0,1-1.466.405c-.086.016-.173.031-.259.044-.2.032-.416-.033.073-.007a5.319,5.319,0,0,0-.65.065c-.584.048-1.17.067-1.755.067-.562,0-1.124-.017-1.685-.058q-.36-.025-.719-.066c-.081-.009-.446-.053-.081-.008s.026,0-.055-.011a14.136,14.136,0,0,1-1.579-.356,2,2,0,1,0-1.064,3.857Z"/><path class="c" d="M285.24,83.213a25.908,25.908,0,0,1,.6,2.755l-.072-.532a1.674,1.674,0,0,1,.011.381l.071-.532a.928.928,0,0,1-.042.171l.2-.478a.73.73,0,0,1-.06.11l.312-.4a.541.541,0,0,1-.09.089l.405-.313a1.821,1.821,0,0,1-.218.116l.478-.2a1.651,1.651,0,0,1-.368.108l.531-.072a1.422,1.422,0,0,1-.345,0l.532.072c-.13-.018-.258-.05-.388-.067a1.506,1.506,0,0,0-.8-.036,1.486,1.486,0,0,0-.743.237,2,2,0,0,0-.718,2.737l.313.4a1.992,1.992,0,0,0,.882.515c.349.047.687.134,1.042.149a3.433,3.433,0,0,0,1.6-.39,2.439,2.439,0,0,0,1.313-1.592,3.736,3.736,0,0,0-.013-1.65c-.15-.887-.355-1.767-.583-2.638a2,2,0,0,0-2.461-1.4,2.028,2.028,0,0,0-1.2.919,2.106,2.106,0,0,0-.2,1.542Z"/><path class="c" d="M271.732,79.36a14.066,14.066,0,0,0,2.444.279,12.866,12.866,0,0,0,2.443-.251,2,2,0,0,0,.477-3.655,2.216,2.216,0,0,0-1.541-.2c-.2.04-.4.075-.608.1l.532-.072a9.066,9.066,0,0,1-2.362.009l.532.071c-.286-.04-.569-.09-.853-.139a1.526,1.526,0,0,0-.8-.036,1.5,1.5,0,0,0-.743.238,2,2,0,0,0-.718,2.736,1.956,1.956,0,0,0,1.2.919Z"/><path class="c" d="M299.635,75.5c-.234.04-.468.078-.7.11l.532-.071a8.992,8.992,0,0,1-2.369.045l.532.071c-.243-.034-.485-.078-.726-.125a2.135,2.135,0,0,0-1.541.2,2,2,0,0,0-.718,2.736,1.983,1.983,0,0,0,1.2.919,10.453,10.453,0,0,0,2.448.254,19,19,0,0,0,2.413-.284,2.01,2.01,0,0,0,1.195-.919,2,2,0,0,0-.718-2.737l-.477-.2a2,2,0,0,0-1.064,0Z"/><path class="c" d="M256.694,83.578a36.677,36.677,0,0,0,6.724,13.879,27.71,27.71,0,0,0,13.112,9.054c5.47,1.71,11.77,2.225,17.312.6a30.056,30.056,0,0,0,13.214-7.833,34.573,34.573,0,0,0,8.627-15.7c.629-2.5-3.228-3.562-3.857-1.063-2.267,9-8.336,16.967-17.248,20.151a25.811,25.811,0,0,1-26.866-6.361,31.329,31.329,0,0,1-7.161-13.79c-.663-2.485-4.523-1.431-3.857,1.063Z"/><path class="g" d="M258.441,68.57a4.342,4.342,0,0,0-3.14-1.149,4.909,4.909,0,0,0-.913.11c-.476-1.689-1.211-4.876-1.211-4.876a41.076,41.076,0,0,1-.03-13.743c2.958-14.527,17.577-26.054,32.9-25.212a30.479,30.479,0,0,1,13.389,2.371,33.535,33.535,0,0,1,17.2,16.085,28.976,28.976,0,0,1,1.9,5.058q.226.841.4,1.7c.924,4.487,2.068,13.292.063,18.907a4.9,4.9,0,0,0-1.847-.4,4.165,4.165,0,0,0-3.81,2.019c-.147-2.216-3.507-5.532-4.99-8.019-1.738-2.914-6.166-7.941-10.227-10.26-9.805,8.209-19.158,16.3-35.554,18.738Z"/><path class="c" d="M256.317,67.992a40.824,40.824,0,0,1-1.662-8.537,33.308,33.308,0,0,1,1.016-11.383A30.506,30.506,0,0,1,269.5,30.879a30.839,30.839,0,0,1,10.818-3.917,34.548,34.548,0,0,1,5.733-.258,35,35,0,0,1,7.219.536,31.632,31.632,0,0,1,20.567,14.888,32.946,32.946,0,0,1,3.927,12.957c.5,4.336.746,9.011-.7,13.2-.843,2.438,3.019,3.486,3.857,1.064,1.443-4.174,1.373-8.848.957-13.192a41.779,41.779,0,0,0-3.036-12.983,35.409,35.409,0,0,0-20.353-18.6,39.645,39.645,0,0,0-15.321-1.881,33.842,33.842,0,0,0-12.7,3.168,35.088,35.088,0,0,0-17.393,17.718,33.74,33.74,0,0,0-2.484,14.064,45.5,45.5,0,0,0,1.871,11.417c.683,2.478,4.543,1.426,3.857-1.064Z"/><path class="c" d="M298.071,53.474c5.96,4.005,10.032,10.419,12.638,17a2.06,2.06,0,0,0,2.46,1.4,2.013,2.013,0,0,0,1.4-2.46c-3.016-7.615-7.573-14.749-14.476-19.387a2,2,0,0,0-2.019,3.454Z"/><path class="c" d="M296.1,50.259a111.762,111.762,0,0,1-14.384,10.764,53.97,53.97,0,0,1-18.934,6.833,2.015,2.015,0,0,0-1.4,2.46,2.048,2.048,0,0,0,2.46,1.4,56.985,56.985,0,0,0,19.89-7.236,118.36,118.36,0,0,0,15.193-11.389c1.976-1.655-.866-4.472-2.828-2.829Z"/><path class="c" d="M315.43,69.984a2.475,2.475,0,0,1,2.171-.516,1.926,1.926,0,0,1,1.045.447c-.3-.221.52.72.2.211a8.258,8.258,0,0,1,.825,5.038,12.97,12.97,0,0,1-1.551,4.819c-.944,1.741-2.361,3.545-4.539,3.262a2.01,2.01,0,0,0-2,2,2.052,2.052,0,0,0,2,2c5.117.664,8.264-4.857,9.543-8.994,1.148-3.717,1.089-9.467-2.543-11.844a6.7,6.7,0,0,0-7.983.749c-1.925,1.717.912,4.538,2.829,2.828Z"/><path class="c" d="M259.855,67.156a6.739,6.739,0,0,0-7.344-1.094,6.4,6.4,0,0,0-3.348,4.308A16,16,0,0,0,251.483,83c1.644,2.446,4.242,4.652,7.389,4.244a2.066,2.066,0,0,0,2-2,2.011,2.011,0,0,0-2-2c-2.177.282-3.594-1.52-4.538-3.262a12.9,12.9,0,0,1-1.552-4.819,8.275,8.275,0,0,1,.826-5.038c-.327.523.511-.437.2-.211a1.821,1.821,0,0,1,.918-.419,2.5,2.5,0,0,1,2.3.488c1.915,1.71,4.754-1.11,2.828-2.828Z"/></svg>